<svg xmlns="http://www.w3.org/2000/svg" xmlns:xlink="http://www.w3.org/1999/xlink" viewBox="0,0,256,256" width="32px" height="32px"><g fill="none" fill-rule="nonzero" stroke="none" stroke-width="1" stroke-linecap="butt" stroke-linejoin="none" stroke-miterlimit="10" stroke-dasharray="" stroke-dashoffset="0" font-family="none" font-weight="none" font-size="none" text-anchor="none" style="mix-blend-mode: normal"><path transform="scale(8,8)" d="M17,3v5h-2v-5zM11.0625,9.625l-1.4375,1.4375l-3.53125,-3.5625l1.40625,-1.40625zM25.90625,7.5l-3.53125,3.5625l-1.4375,-1.4375l3.5625,-3.53125zM23,16c0,3.85547 -3.14453,7 -7,7c-3.85547,0 -7,-3.14453 -7,-7c0,-3.85547 3.14453,-7 7,-7c3.85547,0 7,3.14453 7,7zM8,15v2h-5v-2zM29,15v2h-5v-2zM11.0625,22.375l-3.5625,3.53125l-1.40625,-1.40625l3.53125,-3.5625zM25.90625,24.5l-1.40625,1.40625l-3.5625,-3.53125l1.4375,-1.4375zM17,24v5h-2v-5z" id="strokeMainSVG" fill="#fffef8" stroke="#fffef8" stroke-linejoin="round"></path><g transform="scale(8,8)" fill="#0a0900" stroke="none" stroke-linejoin="miter"><path d="M15,3v5h2v-5zM7.5,6.09375l-1.40625,1.40625l3.53125,3.5625l1.4375,-1.4375zM24.5,6.09375l-3.5625,3.53125l1.4375,1.4375l3.53125,-3.5625zM16,9c-3.85547,0 -7,3.14453 -7,7c0,3.85547 3.14453,7 7,7c3.85547,0 7,-3.14453 7,-7c0,-3.85547 -3.14453,-7 -7,-7zM16,11c2.77344,0 5,2.22656 5,5c0,2.77344 -2.22656,5 -5,5c-2.77344,0 -5,-2.22656 -5,-5c0,-2.77344 2.22656,-5 5,-5zM3,15v2h5v-2zM24,15v2h5v-2zM9.625,20.9375l-3.53125,3.5625l1.40625,1.40625l3.5625,-3.53125zM22.375,20.9375l-1.4375,1.4375l3.5625,3.53125l1.40625,-1.40625zM15,24v5h2v-5z"></path></g></g></svg>